<?xml version="1.0" encoding="UTF-8"?><svg id="Calque_2" xmlns="http://www.w3.org/2000/svg" viewBox="0 0 794.99 937.31"><g id="Calque_1-2"><g><g><path d="M256.03,345.45c0,2.06-.83,3.71-2.48,3.71s-42.92,.41-44.57,.41c-2.48,0-3.3,.83-3.3,3.3,0,2.06-1.65,209.22-1.65,213.34,.41,3.3-1.24,3.71-4.54,4.12-3.3,0-73.87,0-76.34-.41-2.89,0-7.02-4.12-9.08-6.19-2.06-1.65-47.04-44.98-48.28-47.04-1.24-1.24-1.65-2.89-1.65-5.78,.41-2.47-.41-161.76-.41-163.82,0-2.48-.41-2.89-2.48-4.54-1.24-1.24-57.36-53.23-59.01-55.3-2.06-1.65-2.06-3.71-2.06-4.95-.41-1.24,0-60.25,0-62.72,0-6.19,2.06-7.02,5.36-7.43,2.89,0,191.06,2.06,193.95,2.06,2.48,0,5.36,.83,7.01,2.48,2.07,1.65,47.04,44.57,48.28,46.22,1.24,1.24,2.06,2.89,2.06,5.78-.82,2.89-.82,74.69-.82,76.75Zm-67.26-73.86c0-1.24-.83-16.09-.83-26,.83-9.9-.41-22.28-.41-23.93s-.83-1.65-2.06-1.65c-.83,.41-61.9,0-92.02,0-30.12,.41-81.3,.41-83.36,0-2.48-.41-2.48,.83-2.89,2.06-.41,2.06,.83,47.46,.83,49.11,0,1.24,.41,1.24,1.65,1.24s59.01,.82,60.66,1.24c1.65,.41,2.48,1.65,2.48,2.89,0,1.65,2.06,229.03,2.06,230.26,0,1.65,.41,1.65,.83,1.65,.83,0,15.27,.41,24.76,.41s23.11-.41,23.93-.41,1.24,0,.83-2.06c0-1.24-.83-226.97-.41-229.03,0-2.06,1.65-3.3,4.13-3.3,2.89,0,20.22-.41,31.36-.41s25.59-.42,26.82-.42q1.65,0,1.65-1.65Z"/><path d="M525.1,570.76c-.42,2.06-.83,3.3-2.89,3.71-1.24,.41-22.7,1.24-34.67,1.24s-34.25-.41-35.49-.41-2.48-.42-4.13-1.24c-1.65-1.65-33.43-28.88-35.07-30.12-1.24-.82-2.48,0-2.48,1.24-.41,2.06-.41,25.58-.41,26.82s-.41,3.3-2.07,3.71c-2.06,0-63.14,.83-67.26,.83-4.54-.41-5.78-2.48-9.9-5.78-3.71-2.48-52.41-53.65-54.47-55.71-2.06-1.65-1.65-2.06-1.65-7.02,0-4.53-.82-86.24-.82-120.49-.41-33.43,2.06-165.06,2.06-169.19,.41-2.89,.41-3.71,4.95-4.54,4.54-.82,56.53,0,61.07,0,4.13,0,7.84,.83,11.97,3.71,3.71,2.48,30.95,27.24,34.67,30.12,2.89,2.48,2.06,1.65,2.06-1.65s.41-23.52,0-27.65c0-4.95,.83-4.54,4.54-4.54,3.3,0,59.42,0,63.96-.41,4.54,0,6.19,.41,11.14,4.54,4.95,3.71,47.86,44.16,51.17,47.87,3.71,3.3,2.89,6.19,2.89,10.32,0,4.53,1.24,105.64,1.24,141.13s0,151.45-.41,153.51Zm-74.69-67.68c.41-3.71-.82-276.48-.41-279.37,.41-3.3-1.24-2.89-4.54-2.89-2.89,0-40.85,.41-43.33,.41s-4.54-.41-4.54,4.13c.41,3.71-.41,102.34-.41,106.47,0,4.53-.41,4.95-4.54,5.36-3.3,.42-50.76,.83-54.47,.42-2.89-.42-4.54-.83-4.95-6.19,0-5.37-1.24-104.81-.83-107.7,.41-3.3-.41-3.3-3.3-3.3h-43.74c-2.06,0-3.3,0-3.3,1.65v137c-.41,71.39-.41,143.61-.41,145.26,.41,3.3-.41,4.96,2.89,4.96h47.45c2.48,0,2.48-.83,2.48-2.48,0-2.48-.41-105.22,0-108.94,.83-3.71,.83-4.13,3.3-4.13,3.3-.41,54.06-1.24,56.95-1.24,2.48,0,2.89,.41,2.89,3.71,0,2.47,1.24,103.16,1.24,106.88,.41,4.54,1.24,5.78,4.13,5.78,2.48,0,40.03-.41,43.74-.41,3.71-.42,3.71-1.65,3.71-5.37Z"/><path d="M794.99,332.65c-.42,2.89-.42,3.3-2.89,3.71-3.3,0-89.55-.82-91.61-1.24q-2.89,0-1.65,1.65c1.65,2.06,35.07,47.87,35.9,49.11,1.24,1.65,1.24,2.06,1.24,3.71,0,2.06,1.24,46.63,1.24,48.69,0,1.65,0,2.48-.83,3.3-.83,.41-1.65,.83-.42,2.48,1.24,1.24,54.47,53.64,56.13,55.71,1.24,2.06,1.65,2.47,1.65,4.53,.42,1.65,.42,57.36,.42,61.08s-.83,4.13-3.71,4.13c-3.3,0-175.38,1.65-177.44,1.65s-2.48-.41-4.13-1.65c-1.65-1.24-56.12-52-57.35-53.24-.83-1.24-3.3-2.06-3.3-5.78s3.3-288.03,2.89-292.57c-.41-2.89,.83-3.71,4.54-4.13,3.3-.82,175.79,0,178.68,0,2.48,0,3.3,.42,5.37,1.65,2.06,1.24,50.76,44.16,53.24,46.63s1.65,2.89,1.65,5.78c-.41,2.47,.42,61.49,.42,64.78Zm-71.39-108.53c0-1.24,.42-2.47-2.06-2.47-2.06-.42-158.05-1.24-160.11-1.24-2.48,0-3.3,.42-3.3,3.3,0,3.3-4.54,281.43-3.71,283.5q0,2.06,2.06,2.06c2.06-.42,163.41-1.65,166.72-1.65,2.47,0,2.06-1.24,1.65-2.89-.41-2.06,0-47.87,0-49.93s-.41-2.48-2.47-2.48c-2.48,.42-106.06,.42-108.53,.42-2.07-.42-2.48-1.24-2.48-3.3-.41-2.47,0-54.06,0-56.12-.41-1.65,.83-2.89,2.89-3.3,2.89-.41,54.47-.41,56.95-.41,2.06,0,2.06-.42,2.06-2.06s.83-48.29,.83-49.93c.41-2.06,.41-1.65-.83-1.65s-57.78-.83-59.84-.83c-1.65,0-2.06-.83-2.06-2.48s-.41-51.99-.41-54.88c0-.83,.41-1.24,2.47-1.65,2.06,0,103.17-.83,106.47-1.24,3.71-.83,3.71-1.65,3.71-3.71,.42-2.06,.42-45.8,0-47.04Z"/></g><g><path d="M135.08,769.22c0,1.99-.88,2.43-2.43,2.43-1.55,.22-7.72,.22-9.27,.22s-1.99-.22-3.31-1.32c-1.77-1.1-6.62-6.18-7.72-7.28-1.1-1.76-1.32-1.32-1.54-.44-.66,.88-1.77,2.65-3.31,4.63-1.54,2.21-3.09,3.31-7.28,4.19-4.63,.66-19.64,.22-24.72,0-5.52,0-8.16-.22-16.99-3.31-8.61-2.87-22.29-15-29.13-20.96-6.62-5.52-18.32-19.86-21.85-24.94-3.75-5.29-5.74-12.14-6.62-22.07C-.2,689.77,.02,636.14,.02,626.43c-.22-9.49,1.32-18.1,6.4-27.59,4.85-9.49,17.21-20.3,39.5-22.51,22.29-1.77,36.41,9.93,46.34,17.43,10.37,7.28,25.38,22.95,31.12,30.02,5.3,7.5,9.71,13.9,11.7,23.39,1.54,9.49,.66,30.68,.66,32,0,1.1-.22,1.76-1.99,1.76s-18.54-.22-20.3-.22c-1.32,0-.88-.22,0,.88,.88,1.1,14.57,14.79,17.88,20.08,3.53,5.08,4.64,8.83,4.86,14.12,.22,5.3-.88,51.2-1.1,53.41Zm-37.96-92.69c-.22-.88-.22-1.1-.88-1.1s-6.62,0-13.68-.22c-6.4-.22-12.58-.44-13.46-.44s-.88,0-.88,1.1c0,.88,0,7.5-.22,13.46-.22,5.96-1.32,11.7-6.18,15.01-5.08,3.31-7.5,4.63-12.36,4.41-4.19-.22-8.61-2.42-11.48-5.29-2.43-2.65-3.53-5.3-3.53-10.37-.22-4.85-.66-26.92-.66-39.94s.22-25.16,.44-28.91c.44-3.31,2.43-7.5,5.08-9.49,2.65-1.99,6.84-3.53,10.37-3.53,4.41,0,9.93,1.54,13.02,5.96,3.09,4.19,3.97,7.72,4.41,12.58,.22,3.97,.66,12.14,.66,13.68,.22,1.32,0,1.99,1.33,1.99h26.04c1.1,0,1.54-.88,1.54-1.77-.22-.88-.22-15.23-2.21-24.05-1.99-8.17-4.19-15.23-13.02-24.5-8.83-9.71-15.67-11.92-20.53-12.8-5.3-1.11-13.9-2.65-22.07-.22-8.61,2.43-17.88,6.84-23.17,13.24-4.41,5.74-11.26,13.02-11.48,28.25-.22,15.89-.22,32.44-.22,45.02s-.44,31.78,1.33,37.96c1.77,6.62,6.18,15.01,11.7,20.08,6.18,5.29,15.89,10.37,25.6,11.04,9.93,.88,20.08-.22,27.14-3.31,7.28-3.53,8.17-3.97,9.05-4.41,.88-.22,1.1,0,2.21,.88,.88,1.33,4.63,6.62,5.08,7.28,.22,.44,.44,.44,1.32,.44s7.95,.22,8.61,.22,.66-.44,.66-1.33c0,0,.66-19.2,.66-31.11s0-28.69-.22-29.8Z"/><path d="M282.51,742.07c-.22,4.2-1.77,9.49-6.62,16.55-4.85,7.28-13.24,11.92-22.29,14.12-9.27,1.99-23.61,1.33-32.44,.22-8.39-.88-14.79-3.09-29.35-12.8-14.57-9.71-25.6-21.63-31.56-28.69-5.96-7.5-9.27-17.43-11.48-25.16-2.21-7.95-.66-31.12-.44-49.66,.44-18.76,.88-31.12,1.1-37.74,.22-6.62,3.09-15.45,8.61-22.95,5.3-7.5,16.99-18.54,33.99-19.86,17.21-1.54,28.03,3.53,33.1,6.4,4.85,2.65,16.99,10.59,25.16,17.44,8.16,6.84,14.79,14.57,19.2,19.64,4.41,5.52,8.39,10.81,11.92,21.62,3.31,10.37,2.87,25.6,2.65,52.3-.22,26.93-1.1,44.8-1.55,48.55Zm-36.63-81.65c-.22-17.66-.22-27.59-.88-36.42-.66-8.83-3.53-21.85-15.01-31.34-11.7-9.49-21.63-12.14-33.77-11.7-11.92,.44-21.63,3.09-32.22,16.33-6.84,8.39-10.59,18.76-10.81,25.82-.22,6.4,0,13.24-.44,34.43-.44,21.41-.66,36.63-.22,43.03,.44,5.96,2.87,15.89,12.8,24.72,9.71,9.05,18.1,14.57,33.77,13.24,15.23-.88,21.63-3.09,30.23-11.25,8.61-8.61,14.79-19.42,15.67-29.35,.66-9.93,.88-19.64,.88-37.52Zm-48.55-50.32c6.18,0,9.27,.66,13.9,4.19,4.19,3.53,4.85,7.28,5.08,13.46,.22,5.74,.44,54.73,.66,59.81,0,4.86,0,21.63-16.77,22.07-16.77,.22-16.99-12.14-17.88-16.77-.88-4.63-1.1-21.41-1.1-36.41-.22-15.01-.22-23.61,0-27.15,0-3.53,.44-7.72,3.53-12.8,1.54-3.31,6.18-6.18,12.58-6.4Z"/><path d="M430.16,722.21c0,8.16-.88,29.13-9.49,39.06-8.39,10.15-17.21,11.48-23.17,12.14-5.3,.44-24.94,.22-31.78-.66-6.84-.66-18.76-5.52-29.13-13.68-9.71-7.95-20.74-18.1-29.13-29.13-8.61-11.47-12.14-22.73-12.8-30.01-.66-7.06-1.1-17.88-1.1-18.98,0-1.32,.66-1.1,1.77-1.1s21.41-.22,24.5-.22c3.31,0,1.1-.66,.22-1.33-.66-.66-2.65-2.21-5.74-5.52-3.31-3.31-5.08-5.29-10.15-12.58-5.3-7.06-7.5-13.68-9.27-22.07-1.77-7.94-2.43-16.33,.22-26.48,2.65-10.15,7.95-16.33,13.46-22.07,5.74-6.18,12.14-9.27,22.07-11.48,9.49-2.42,19.2-.88,26.92,1.33,8.16,1.76,14.79,7.28,22.07,12.58,7.5,5.29,10.15,7.95,17.66,15.01,7.72,6.84,16.55,16.99,22.51,24.72,5.96,7.5,8.61,16.77,9.27,21.41,1.1,5.74,.66,12.8,.66,15.01,0,1.99-.88,3.31-1.99,3.75-1.33,.66-7.95,.66-11.04,.66-3.31,0-13.68-.44-14.35-.44-.66-.22-.66,0,0,.44,.66,.66,3.75,3.97,10.81,12.58,6.84,8.38,11.7,15.89,13.91,19.86,1.99,3.75,3.09,9.27,3.09,17.21Zm-45.68-53.63c-5.74-7.95-15.67-18.32-32-21.19-15.89-2.87-21.19-5.3-24.72-12.14-3.53-6.84-1.33-15.67,3.31-19.86,4.41-4.19,13.68-7.06,21.85-1.76,8.17,4.85,9.27,19.2,9.27,19.86,0,.88,0,1.1,1.54,1.1,1.77,0,23.61,.88,24.72,.88s1.54,.22,1.54-1.33,.44-8.38-1.54-16.77c-2.21-8.16-5.3-17.43-15.45-25.38-10.15-8.16-20.52-11.25-32.88-11.25s-24.94,7.5-31.34,14.79c-6.18,7.5-11.92,16.77-11.7,27.81,.44,11.04,3.31,24.5,11.25,33.55,7.72,9.27,16.11,12.58,23.17,14.34,7.06,1.76,16.55,2.87,20.75,5.29,4.41,2.65,10.15,6.18,10.37,16.33,.44,10.15-7.28,17.43-17.88,16.77-10.37-.44-15.67-7.06-17.21-12.58-1.55-5.29-1.77-10.37-1.77-11.48,0-.88-.44-.88-1.54-.88s-24.06,.22-25.16,.22c-1.33,0-1.33,.22-1.33,.88,0,1.1,.66,11.48,3.31,19.64,3.31,7.72,7.06,16.99,18.76,25.16,11.92,7.94,20.74,8.38,29.57,7.94,8.39-.44,20.97-2.87,31.34-15.45,10.15-12.36,10.15-22.51,10.37-30.68,.22-8.16-1.55-16.11-6.62-23.83Z"/><path d="M572.72,722.21c0,8.16-.88,29.13-9.49,39.06-8.38,10.15-17.21,11.48-23.17,12.14-5.3,.44-24.94,.22-31.78-.66-6.84-.66-18.76-5.52-29.13-13.68-9.71-7.95-20.74-18.1-29.13-29.13-8.61-11.47-12.14-22.73-12.8-30.01-.66-7.06-1.11-17.88-1.11-18.98,0-1.32,.66-1.1,1.77-1.1s21.41-.22,24.5-.22c3.31,0,1.1-.66,.22-1.33-.66-.66-2.65-2.21-5.74-5.52-3.31-3.31-5.08-5.29-10.15-12.58-5.29-7.06-7.5-13.68-9.27-22.07-1.76-7.94-2.43-16.33,.22-26.48,2.65-10.15,7.95-16.33,13.46-22.07,5.74-6.18,12.14-9.27,22.07-11.48,9.49-2.42,19.2-.88,26.92,1.33,8.16,1.76,14.79,7.28,22.07,12.58,7.5,5.29,10.15,7.95,17.66,15.01,7.72,6.84,16.55,16.99,22.51,24.72,5.96,7.5,8.61,16.77,9.27,21.41,1.1,5.74,.66,12.8,.66,15.01,0,1.99-.88,3.31-1.99,3.75-1.32,.66-7.94,.66-11.03,.66-3.31,0-13.69-.44-14.35-.44-.66-.22-.66,0,0,.44,.66,.66,3.75,3.97,10.82,12.58,6.84,8.38,11.7,15.89,13.9,19.86,1.99,3.75,3.09,9.27,3.09,17.21Zm-45.68-53.63c-5.74-7.95-15.67-18.32-32-21.19-15.89-2.87-21.19-5.3-24.72-12.14-3.53-6.84-1.32-15.67,3.31-19.86,4.41-4.19,13.68-7.06,21.85-1.76,8.16,4.85,9.27,19.2,9.27,19.86,0,.88,0,1.1,1.54,1.1,1.76,0,23.61,.88,24.72,.88s1.54,.22,1.54-1.33,.44-8.38-1.54-16.77c-2.21-8.16-5.3-17.43-15.45-25.38-10.15-8.16-20.53-11.25-32.88-11.25s-24.94,7.5-31.34,14.79c-6.18,7.5-11.92,16.77-11.7,27.81,.44,11.04,3.31,24.5,11.26,33.55,7.72,9.27,16.11,12.58,23.17,14.34,7.06,1.76,16.55,2.87,20.74,5.29,4.41,2.65,10.15,6.18,10.37,16.33,.44,10.15-7.28,17.43-17.87,16.77-10.37-.44-15.67-7.06-17.21-12.58-1.54-5.29-1.77-10.37-1.77-11.48,0-.88-.44-.88-1.54-.88s-24.05,.22-25.16,.22c-1.32,0-1.32,.22-1.32,.88,0,1.1,.66,11.48,3.31,19.64,3.31,7.72,7.06,16.99,18.76,25.16,11.91,7.94,20.74,8.38,29.57,7.94,8.39-.44,20.97-2.87,31.34-15.45,10.15-12.36,10.15-22.51,10.37-30.68,.22-8.16-1.54-16.11-6.62-23.83Z"/><path d="M650.19,767.46c0,4.19-1.1,3.75-2.87,3.75h-32.44c-1.76,0-2.87,0-4.41-1.54-1.54-1.54-26.26-22.95-27.58-23.61-1.1-1.1-1.54-1.76-1.77-3.31,0-1.77-.66-45.9-.66-78.13s.22-80.77,.22-82.98c0-1.1-.22-1.76,1.33-1.99,1.54-.22,33.54,.22,35.53,.22s2.43,.44,3.75,1.99c1.1,1.1,26.48,23.39,28.03,24.72,1.11,1.1,1.33,1.54,1.54,2.87v75.26c0,22.51-.66,79.01-.66,82.76Zm-36.63-31.12c0-1.54-.22-53.19-.44-75.48-.22-22.29-1.33-71.72-1.33-73.49s-.22-2.87-1.1-2.87-22.29-.22-23.61-.22-1.54,0-1.54,1.54c0,1.99-.22,46.56-.22,71.94-.22,25.16,.22,75.04,.22,77.02,.22,1.76,.22,2.21,1.33,2.43,1.1,.44,6.62,1.54,13.46,1.54s11.26,.22,11.92,0c.88-.22,1.54-.66,1.33-2.43Z"/><path d="M768.93,706.54c-11.48,7.06-28.69,8.61-30.45,8.61-1.99,0-1.54,.66-1.77,2.65,0,1.54-.44,47.45-.44,50.54-.44,3.31-1.1,3.09-2.87,3.09-1.77,.22-36.19-.44-38.4-.66-2.65-.22-3.75-.66-5.08-2.21-1.33-1.33-6.84-5.96-12.36-11.48-5.52-5.52-13.46-14.34-14.34-15.45-.88-1.33-1.11-1.77-1.11-3.97,0-2.43,.22-37.3,0-63.12,0-26.04-.22-88.94,0-90.93,0-2.43,1.54-2.21,3.75-2.87,1.76-.44,35.09-.44,47.23,0,11.7,.44,16.55,3.09,26.04,8.83,9.49,5.52,35.75,30.9,39.94,36.64,4.2,5.29,15.45,13.46,15.89,39.94,.66,26.26-14.12,33.77-26.04,40.39Zm-12.36-76.14c0-13.68-6.62-23.17-12.58-30.01-5.96-6.62-15.01-14.35-28.25-15.01-13.46-.44-45.68-.66-47.67-.44-1.76,0-1.76-.22-1.99,.88-.22,1.32-.66,52.08-.44,75.03,.22,23.17,.44,73.49,.44,75.26,0,1.54-.66,2.42,1.54,2.42s22.29,.66,24.06,.44c2.21,0,2.43-.22,2.43-2.21v-28.69c0-13.02,.88-30.23,.66-31.56-.22-1.54,.88-1.32,1.99-1.32,1.54,0,16.55,0,25.6-1.1,8.61-1.33,14.34-3.97,21.19-11.48,6.62-7.28,13.24-18.32,13.02-32.22Zm-59.37-16.77c2.43-.44,13.02,0,16.77,.88,3.97,.88,13.46,4.63,13.24,15.67-.22,11.03-6.4,13.24-12.14,15.45-5.74,1.77-15.67,1.1-18.09,1.1-2.21,0-2.87-.88-2.87-2.87,.22-1.77,0-26.04,0-28.47,0-1.54,.66-1.32,3.09-1.76Z"/></g><g><path d="M91.01,879.38c-9.62,5.92-24.04,7.21-25.52,7.21-1.66,0-1.29,.55-1.48,2.22,0,1.29-.37,39.76-.37,42.35-.37,2.78-.93,2.59-2.41,2.59-1.48,.18-30.33-.37-32.18-.56-2.22-.18-3.14-.55-4.25-1.85-1.11-1.11-5.73-4.99-10.36-9.62s-11.28-12.02-12.02-12.94c-.74-1.11-.92-1.48-.92-3.33,0-2.03,.19-31.25,0-52.89,0-21.82-.19-74.53,0-76.19,0-2.03,1.29-1.85,3.14-2.4,1.48-.37,29.4-.37,39.57,0,9.8,.37,13.87,2.59,21.82,7.4,7.95,4.62,29.96,25.89,33.47,30.7,3.51,4.44,12.94,11.28,13.31,33.47,.56,22.01-11.84,28.29-21.82,33.84Zm-10.36-63.8c0-11.47-5.55-19.42-10.54-25.15-4.99-5.55-12.57-12.02-23.67-12.58-11.28-.37-38.28-.56-39.94-.37-1.48,0-1.48-.19-1.66,.74-.19,1.11-.56,43.64-.37,62.87,.19,19.42,.37,61.58,.37,63.06,0,1.29-.56,2.03,1.29,2.03s18.68,.56,20.16,.37c1.85,0,2.03-.18,2.03-1.85v-24.04c0-10.91,.74-25.34,.55-26.45-.19-1.29,.74-1.11,1.66-1.11,1.29,0,13.87,0,21.45-.92,7.21-1.11,12.02-3.33,17.75-9.62,5.55-6.1,11.09-15.35,10.91-27Zm-49.75-14.05c2.03-.37,10.91,0,14.05,.74,3.33,.74,11.28,3.88,11.1,13.13-.19,9.24-5.36,11.09-10.17,12.94-4.81,1.48-13.13,.92-15.16,.92-1.85,0-2.4-.74-2.4-2.4,.19-1.48,0-21.82,0-23.86,0-1.29,.55-1.11,2.59-1.48Z"/><path d="M232.85,924.87c-.19,.92,0,1.29-.93,2.77-.92,1.29-3.7,4.62-7.21,5.73-3.14,1.29-11.09,.74-13.31,.74-2.4,0-4.62,0-7.77-1.48-3.33-1.48-23.3-17.01-24.97-18.68-1.66-1.48-2.4-.74-2.4,.55,0,1.66-.74,16.83-.19,17.94,0,1.11-1.11,1.48-2.59,1.66-1.48,0-25.52-.18-26.26-.18-.92,0-1.29-.18-1.85-.74-.56-.55-24.41-23.3-25.15-24.04-.74-.74-1.66-2.03-1.48-3.88,0-1.66-.19-127.41,0-128.9,0-2.03,1.11-2.03,4.07-2.4,2.96-.19,31.62,.18,42.53,1.29,11.1,.92,20.34,5.18,28.29,10.91,7.77,5.73,21.45,20.53,25.15,25.34,4.07,4.99,8.51,9.62,11.28,18.49,3.14,9.43,3.14,16.65,1.85,22.56-1.29,6.1-6.66,12.94-7.58,13.87-.74,.93-.74,1.29-.19,2.03,.56,.74,3.33,2.96,6.29,8.32,2.59,5.36,1.85,12.76,2.03,21.45,.19,8.32,.37,25.7,.37,26.63Zm-24.78-35.51c-.55-.37-5.55-1.66-7.58-5.55-2.03-3.51-2.03-4.81-2.22-10.72-.19-5.73-.37-13.87-2.77-18.86-2.22-4.81-5.73-8.88-6.29-9.8-.74-.92-.37-1.29,0-1.85,.56-.74,5.18-4.62,7.77-14.42,2.77-9.8,1.48-19.23-1.85-25.52-3.51-6.28-8.69-15.16-18.68-20.16-10.36-4.99-19.6-5.18-25.52-5.36-5.92-.37-26.81-.74-27.92-.74-.92,.37-.74,.56-.92,1.11-.19,1.11,.37,42.16,.18,65.28-.37,22.56,0,60.66,0,61.77,0,.93,0,1.85,1.11,1.85h21.08c.93-.19,1.48-.19,1.3-1.48,0-1.11,.18-47.34,.18-48.82s.56-1.48,1.48-1.66c.74-.19,15.16-1.29,19.97,1.85,4.62,3.52,7.21,6.47,7.21,14.98,.19,8.51,0,23.11,4.62,28.29,4.25,5.36,7.77,6.66,12.21,6.47,4.62-.18,8.32-.18,12.57-5.36,4.07-5.36,4.25-8.14,4.62-9.43q.37-1.48-.56-1.85Zm-61.4-87.66c.74-.18,4.81-.37,9.62-.37s7.4,.74,9.62,1.66c2.03,.92,9.62,4.99,9.06,14.06-.56,9.24-5.55,11.28-9.8,12.76-4.44,1.66-14.98,.92-17.2,.74-2.03,0-2.22-1.48-2.22-2.59s-.56-23.67-.37-24.97c0-.92,.55-1.11,1.29-1.29Z"/><path d="M351.21,909.15c-.18,3.52-1.48,7.95-5.55,13.87-4.07,6.1-11.09,9.99-18.68,11.84-7.77,1.66-19.79,1.11-27.19,.19-7.03-.74-12.39-2.59-24.59-10.73-12.21-8.14-21.45-18.12-26.44-24.04-4.99-6.28-7.77-14.61-9.62-21.08-1.85-6.66-.55-26.08-.37-41.61,.37-15.72,.74-26.08,.93-31.62,.19-5.55,2.59-12.94,7.21-19.23,4.44-6.29,14.24-15.53,28.48-16.65,14.42-1.29,23.49,2.96,27.74,5.36,4.07,2.22,14.24,8.88,21.08,14.61,6.84,5.73,12.39,12.21,16.09,16.46,3.7,4.62,7.03,9.06,9.99,18.12,2.77,8.69,2.4,21.45,2.22,43.83-.18,22.56-.92,37.54-1.29,40.68Zm-30.7-68.42c-.19-14.79-.19-23.12-.74-30.52-.56-7.4-2.96-18.31-12.58-26.26-9.8-7.95-18.12-10.17-28.29-9.8-9.99,.37-18.12,2.59-27,13.68-5.73,7.03-8.88,15.72-9.06,21.64-.19,5.36,0,11.09-.37,28.85-.37,17.94-.56,30.7-.19,36.06,.37,4.99,2.4,13.32,10.73,20.71,8.14,7.58,15.16,12.21,28.29,11.09,12.76-.74,18.12-2.59,25.34-9.43,7.21-7.21,12.39-16.27,13.13-24.59,.55-8.32,.74-16.46,.74-31.44Zm-40.68-42.16c5.18,0,7.77,.55,11.65,3.51,3.51,2.96,4.07,6.1,4.25,11.28,.19,4.81,.37,45.86,.55,50.11,0,4.07,0,18.12-14.05,18.49-14.05,.19-14.24-10.17-14.98-14.05-.74-3.88-.92-17.94-.92-30.51-.19-12.58-.19-19.79,0-22.75,0-2.96,.37-6.47,2.96-10.73,1.29-2.77,5.18-5.18,10.54-5.36Z"/><path d="M432.58,928.2c-5.73,7.58-16.46,7.58-21.08,7.77-4.62,.18-21.64-.19-22.56-.37-1.29,0-1.85-.37-2.78-1.29-1.29-.74-4.99-4.07-9.43-8.14-4.62-4.25-13.69-13.87-14.61-14.79-.74-.74-.93-1.29-.93-2.59,0-1.48-.18-26.08,0-27.56,0-1.29,.56-1.11,1.11-1.11,.92,0,2.77-.19,5.55-.74,2.77-.74,5.55-1.66,7.58-4.07,2.03-2.22,2.03-5.55,2.22-10.17,.37-4.44-.19-88.77-.37-90.24-.18-1.29,.93-2.03,2.41-1.85,1.29,0,27.92,.37,29.59,.37,1.29,.19,3.33,.74,4.62,2.22,1.29,1.11,22.93,23.11,23.48,23.67,.93,.55,1.48,1.66,1.48,3.7,0,2.41,.18,95.42,.37,104.12,0,8.69-.92,13.31-6.66,21.08Zm-26.63-73.23c.19-10.17-.74-74.16-.74-75.64,.19-1.29,0-1.48-1.3-1.85-1.11,0-18.86-.19-20.34-.19s-1.48,.56-1.48,1.3c0,1.48,.56,80.26,.37,87.47-.37,7.03-1.11,12.21-6.29,15.16-5.55,2.96-9.25,2.96-10.17,2.96-1.11,.19-1.48,.19-1.48,1.11,.19,.92,.19,18.12,.19,19.23,0,1.3-.19,2.03,.92,2.03,1.3-.18,9.62,1.11,19.97-3.7,9.99-5.18,15.16-10.54,18.68-22.38,3.51-12.02,1.66-15.53,1.66-25.52Z"/><path d="M560.92,827.6c-.19,1.3-.19,1.48-1.29,1.66-1.48,0-40.13-.37-41.05-.55q-1.3,0-.74,.74c.74,.92,15.72,21.45,16.09,22.01,.55,.74,.55,.92,.55,1.66,0,.92,.55,20.9,.55,21.82,0,.74,0,1.11-.37,1.48-.37,.18-.74,.37-.19,1.11,.55,.55,24.41,24.04,25.15,24.97,.55,.92,.74,1.11,.74,2.03,.19,.74,.19,25.71,.19,27.37s-.37,1.85-1.66,1.85c-1.48,0-78.59,.74-79.52,.74s-1.11-.18-1.85-.74c-.74-.56-25.15-23.3-25.7-23.86-.37-.55-1.48-.92-1.48-2.59s1.48-129.08,1.29-131.11c-.18-1.29,.37-1.66,2.03-1.85,1.48-.37,78.78,0,80.07,0,1.11,0,1.48,.19,2.41,.74,.92,.56,22.75,19.79,23.86,20.9s.74,1.29,.74,2.59c-.18,1.11,.19,27.55,.19,29.03Zm-31.99-48.64c0-.55,.18-1.11-.92-1.11-.92-.19-70.83-.56-71.75-.56-1.11,0-1.48,.19-1.48,1.48,0,1.48-2.03,126.12-1.66,127.05q0,.92,.92,.92c.92-.19,73.23-.74,74.71-.74,1.11,0,.92-.55,.74-1.29-.18-.92,0-21.45,0-22.38s-.18-1.11-1.11-1.11c-1.11,.19-47.53,.19-48.64,.19-.92-.19-1.11-.56-1.11-1.48-.18-1.11,0-24.22,0-25.15-.18-.74,.37-1.29,1.29-1.48,1.29-.18,24.41-.18,25.52-.18,.93,0,.93-.19,.93-.92s.37-21.64,.37-22.38c.18-.92,.18-.74-.37-.74s-25.89-.37-26.82-.37c-.74,0-.92-.37-.92-1.11s-.18-23.3-.18-24.59c0-.37,.18-.55,1.11-.74,.92,0,46.23-.37,47.71-.56,1.66-.37,1.66-.74,1.66-1.66,.18-.92,.18-20.53,0-21.08Z"/><path d="M681.13,838.7c0,4.62-.37,17.94-.37,19.05,0,1.48-.55,.74-1.85,.74s-12.76,0-14.24,.18q-.55,0,0,1.11c.92,1.29,3.88,4.62,6.47,8.51,3.52,3.88,5.36,6.1,6.66,8.14,1.66,2.22,1.66,2.96,1.85,3.88,.37,.92,.74,7.21,.74,12.95,0,6.1-.37,18.49-3.14,27.55-2.22,8.51-8.32,12.76-15.35,14.98-7.03,2.22-20.16,1.48-25.7,1.11-5.55-.37-10.73-1.11-21.45-6.1-10.54-4.81-24.04-17.2-34.21-29.03-9.25-12.02-11.47-21.45-12.39-28.11-.93-6.84-.74-50.85-.19-65.09,.56-14.05,5.73-20.34,11.09-26.63,5.18-6.47,15.16-9.8,18.31-10.72,3.88-.74,13.13-.37,21.82,.37,8.32,1.11,16.09,5.55,26.82,12.95,10.91,7.77,22.93,21.82,26.08,25.52,3.51,4.44,5.73,9.8,7.03,13.31,1.29,3.52,2.03,10.91,2.03,15.35Zm-30.51,15.35c0-.74,.18-.92-.92-.92-1.48,0-23.12-.19-23.86-.19-.92-.18-1.11,0-1.11,1.11,0,1.29-.19,7.77-.56,13.5-.55,6.1-2.59,8.69-6.1,12.02-3.52,2.78-11.28,3.7-15.9,.56-4.99-3.52-6.47-9.62-6.47-18.86,.18-9.62,.74-39.02,1.11-46.79,.37-7.77,3.33-10.72,7.03-13.87,4.25-2.41,10.72-1.66,13.87,0,2.96,2.03,4.62,3.33,5.73,8.14,1.48,4.99,.74,16.09,.92,17.38,.18,.37,.18,1.11,.92,1.11,.55,0,23.48-.37,24.41-.37,.74-.19,.55-.19,.55-1.29s0-10.36-.37-16.28c-.37-5.36-1.29-9.25-6.29-18.31-5.18-9.06-16.46-13.5-23.3-15.53-6.84-1.85-12.76-1.48-19.42-1.11-6.84,.19-13.31,4.07-18.68,9.25-5.92,5.55-8.88,11.84-10.72,17.57-1.48,6.1-1.48,10.35-1.66,25.34,0,15.35-.19,37.17,.92,46.79,.55,9.98,4.62,16.83,12.21,23.48,7.77,7.03,20.16,10.54,33.47,9.62,13.31-1.11,21.27-8.69,28.29-19.97,7.4-11.65,5.73-31.25,5.92-32.36Z"/><path d="M793.2,833.33c0,.92-.37,1.66-1.11,1.66s-19.23,.18-19.97,.18c-1.11,0-1.48,.37-1.48,1.48,0,.92-.74,93.76-.74,95.61,.19,1.48-.55,1.66-2.03,1.85-1.48,0-33.1,0-34.21-.18-1.29,0-3.14-1.85-4.07-2.78-.92-.74-21.08-20.16-21.64-21.08-.56-.56-.74-1.29-.74-2.59,.18-1.11-.19-72.49-.19-73.41,0-1.11-.18-1.29-1.11-2.03-.56-.55-25.71-23.85-26.45-24.78-.92-.74-.92-1.66-.92-2.22-.18-.55,0-27,0-28.11,0-2.78,.92-3.15,2.41-3.33,1.29,0,85.62,.92,86.91,.92,1.11,0,2.41,.37,3.15,1.11,.92,.74,21.08,19.97,21.64,20.71,.55,.55,.92,1.29,.92,2.59-.37,1.29-.37,33.47-.37,34.4Zm-30.14-33.1c0-.56-.37-7.21-.37-11.65,.37-4.44-.18-9.98-.18-10.72s-.37-.74-.93-.74c-.37,.18-27.74,0-41.24,0-13.5,.18-36.43,.18-37.35,0-1.11-.18-1.11,.37-1.3,.92-.18,.92,.37,21.27,.37,22.01,0,.56,.19,.56,.74,.56s26.45,.37,27.18,.55c.74,.18,1.11,.74,1.11,1.29,0,.74,.92,102.64,.92,103.19,0,.74,.19,.74,.37,.74,.37,0,6.84,.18,11.09,.18s10.36-.18,10.73-.18,.55,0,.37-.92c0-.56-.37-101.71-.19-102.64,0-.92,.74-1.48,1.85-1.48,1.29,0,9.06-.18,14.05-.18s11.47-.19,12.02-.19q.74,0,.74-.74Z"/></g><g><path d="M424.71,0c-4.13,1.27-8.45,2.06-12.06,4.65-1.34,.96-2.7,1.92-3.94,3-3.6,3.13-5.6,6.1-4,11.78,3.03,10.67,4.58,21.77,6.64,32.71,.29,1.54,.82,2.53,2.2,3.37,18.05,11,42.4-1.45,44.51-22.48,1.62-16.21-10.01-30.63-25.22-32.57-.29-.04-.55-.3-.82-.46-2.43,0-4.87,0-7.3,0Z"/><path d="M311,0c-7.51,1.65-14.01,4.83-18.9,11.1-7.74,9.92-7.53,24.52,.79,34.64,8.14,9.91,22.54,13.05,33.6,7.33,11.29-5.84,17.24-17.17,15.39-29.3-1.86-12.15-10.78-21.05-23.39-23.33-.3-.05-.56-.29-.84-.44-2.21,0-4.43,0-6.64,0Z"/><path d="M247.15,89.14c4.47-15.31,15.98-24.13,31.99-24.2,25-.1,50,0,74.99-.09,2.3,0,2.95,.82,3.34,2.89,2.12,11.39,4.3,22.78,6.62,34.13,1.8,8.77,7.79,14.34,16.7,15.52,2.02,.27,1.89,1.24,1.9,2.61,.12,24.89,.26,49.77,.38,74.66,.02,4.25-1.1,8.11-4.38,11.04-4.29,3.85-9.31,4.67-14.48,2.46-5.49-2.35-8.09-6.9-8.12-12.91-.17-31.86-.37-63.71-.55-95.57,0-1,.03-2-.06-2.98-.14-1.52-.98-2.45-2.55-2.49-1.6-.04-2.46,.92-2.67,2.38-.16,1.09-.07,2.21-.07,3.31,0,39.45,0,78.89,0,118.34-3.18-1.26-7-1.23-10.14,.42-3.83-3.65-9.72-4.68-14.11,.56-.32,.38-.6,.77-.9,1.16-1.71-1.38-3.9-2.22-6.5-2.13-.25,0-.52,0-.78,.01,0-5.87,0-11.74,0-17.61,0-1.22,.05-2.45-.12-3.64-.27-1.79-1.5-2.65-3.25-2.7-1.77-.04-3.01,.83-3.33,2.58-.22,1.18-.16,2.42-.16,3.64,0,5.79,0,11.58,0,17.36-10.3-1.01-23.15-3.51-32.42-.58,0-2.05,0-4.1,0-6.14h.21c0-37.17,0-74.33,0-111.5,0-1.21,0-2.44-.14-3.64-.16-1.45-1.25-2.11-2.53-2.16-1.45-.05-2.58,.7-2.79,2.27-.13,.98-.08,1.99-.08,2.98,.01,29.87,.03,59.73,.04,89.6,0,2.65,.1,5.32-.07,7.96-.48,7.27-6.42,12.67-13.67,12.55-7.82-.13-13.25-6.02-13.28-14.72-.08-32.3-.1-64.6-.08-96.9,0-2.85,.27-5.74,1.08-8.51Z"/><path d="M373.8,14.41c8.95-2.92,16.98,2.61,19.01,12.99,3.08,15.71,6.26,31.4,9.33,47.11,.33,1.7,1,2.4,2.78,2.52,3.64,.24,7.25,.76,10.88,1.14,4.94,.51,9.89,.99,14.83,1.48,.03-.16,.06-.31,.09-.47-5.53-2.5-11.06-4.99-16.6-7.49,9.12-.57,18.05-.57,26.98-.58,13.71,0,21.31,7.59,21.35,21.34,.13,42.5,.25,84.99,.37,127.49-2.43-1.5-5.43-2.4-9.01-2.4-2.86,0-5.3,.62-7.42,1.61-1.08-.23-2.21-.34-3.37-.29h-.22c-1.85,0-3.61,.34-5.31,.9-1.87-.71-3.98-1.12-6.36-1.12-.23,0-.44,.03-.66,.03-.01-6.62-.02-13.24-.04-19.86,0-.89,0-1.77-.02-2.66-.02-.65,0-1.24-.82-1.58-3.29-1.34-5.81,.31-5.81,3.87,0,6.4,0,12.8,0,19.19-.63-.04-1.27-.1-1.9-.1-3.12,0-6.03,.8-8.73,2.36l-1.07,.82c-2.05-.9-4.43-1.43-7.15-1.43-2.61,0-4.89,.51-6.89,1.35-1.96-1.3-4.3-2.19-7.05-2.52-.05-10.79-.11-21.58-.15-32.37-.08-21.79-.09-43.59-.23-65.38-.02-2.66,.24-4.32,3.48-4.54,2.83-.19,5.62-1.1,8.43-1.69,8.39-1.78,16.77-3.56,25.16-5.35-.05-.17-.11-.34-.16-.51-12.75-1.36-25.5-2.69-38.25-4.08-6.25-.68-10.84-4.56-12.48-10.71-.91-3.41-1.52-6.89-2.21-10.35-3.51-17.76-7.12-35.5-10.45-53.3-1.29-6.9,2.98-13.24,9.65-15.42Z"/></g></g></g></svg>